<svg width="40" height="36" viewBox="0 0 40 36" fill="none"
    xmlns="http://www.w3.org/2000/svg">
    <path
        d="M1.17013 28.1263H31.7965C32.0712 28.1263 32.3367 28.0302 32.5472 27.855C32.8414 27.6087 39.5516 21.8361 39.9608 9.37543H7.06868C6.66108 20.6864 0.481275 26.0029 0.417053 26.0559C0.040552 26.3741 -0.0979699 26.8937 0.0714127 27.3561C0.239623 27.8173 0.678002 28.1263 1.17013 28.1263Z"
        fill="white" />
    <path
        d="M38.8281 2.34385H32.9684V1.17193C32.9684 0.515648 32.4528 0 31.7965 0C31.1402 0 30.6246 0.515648 30.6246 1.17193V2.34385H24.6868V1.17193C24.6868 0.515648 24.1712 0 23.5149 0C22.8586 0 22.343 0.515648 22.343 1.17193V2.34385H16.4833V1.17193C16.4833 0.515648 15.9677 0 15.3114 0C14.6551 0 14.1395 0.515648 14.1395 1.17193V2.34385H8.27984C7.62356 2.34385 7.10791 2.8595 7.10791 3.51578V7.03156H40V3.51578C40 2.8595 39.4844 2.34385 38.8281 2.34385Z"
        fill="white" />
    <path
        d="M34.0522 29.6519C33.4159 30.1817 32.6171 30.4702 31.7965 30.4702H7.10791V33.986C7.10791 34.6337 7.63207 35.1579 8.27984 35.1579H38.8281C39.4758 35.1579 40 34.6337 40 33.986V20.849C37.7405 26.3923 34.5876 29.2038 34.0522 29.6519Z"
        fill="white" />
</svg>