<svg width="20" height="15" viewBox="0 0 20 15" fill="none" xmlns="http://www.w3.org/2000/svg">
    <path
        d="M16.5757 0.188786C16.4548 0.0679066 16.2908 0 16.1198 0C15.9488 0 15.7849 0.0679066 15.664 0.188786L13.6174 2.23536C12.3875 1.63447 11.0405 1.31154 9.6719 1.28945C4.43232 1.28945 0.310169 6.47422 0.137364 6.69474C0.048366 6.80825 0 6.94833 0 7.09257C0 7.23682 0.048366 7.3769 0.137364 7.49041C1.38461 8.99775 2.87085 10.2901 4.53678 11.316L2.76812 13.0846C2.70653 13.1441 2.65741 13.2153 2.62362 13.2939C2.58982 13.3726 2.57204 13.4572 2.57129 13.5428C2.57055 13.6284 2.58686 13.7133 2.61928 13.7926C2.6517 13.8718 2.69958 13.9438 2.76012 14.0044C2.82066 14.0649 2.89266 14.1128 2.9719 14.1452C3.05114 14.1776 3.13605 14.1939 3.22166 14.1932C3.30728 14.1924 3.39189 14.1747 3.47055 14.1409C3.54922 14.1071 3.62037 14.0579 3.67985 13.9964L16.5757 1.10052C16.6966 0.979605 16.7645 0.81563 16.7645 0.644654C16.7645 0.473678 16.6966 0.309703 16.5757 0.188786ZM6.44794 7.09257C6.44897 6.23784 6.78896 5.41841 7.39335 4.81402C7.99774 4.20963 8.81717 3.86964 9.6719 3.86861C10.3006 3.87307 10.9135 4.06527 11.4322 4.42056L6.99988 8.85285C6.6446 8.33421 6.4524 7.72122 6.44794 7.09257Z"
        fill="#36445B" />
    <path
        d="M19.2065 6.69478C18.2418 5.52588 17.1334 4.4834 15.9077 3.59204L12.8507 6.649C12.8763 6.79562 12.8914 6.94386 12.8959 7.09262C12.8949 7.94735 12.5549 8.76678 11.9505 9.37117C11.3461 9.97556 10.5267 10.3156 9.67192 10.3166C9.52317 10.3121 9.37492 10.297 9.2283 10.2714L7.03601 12.4637C7.88726 12.7422 8.77632 12.8879 9.67192 12.8957C14.9115 12.8957 19.0337 7.71097 19.2065 7.49045C19.2955 7.37694 19.3438 7.23686 19.3438 7.09262C19.3438 6.94837 19.2955 6.80829 19.2065 6.69478Z"
        fill="#36445B" />
</svg>