<svg width="36" height="36" viewBox="0 0 36 36" fill="none" xmlns="http://www.w3.org/2000/svg">
    <path
        d="M34.6242 12.0668L20.2242 0.745793C19.5835 0.261821 18.8027 0 18 0C17.1973 0 16.4165 0.261821 15.7758 0.745793L1.37581 12.0668H1.37461C0.945377 12.4034 0.598487 12.8336 0.360299 13.3245C0.12211 13.8155 -0.00110813 14.3543 7.50876e-06 14.9V32.3975C0.00105568 33.3526 0.380677 34.2683 1.05558 34.9437C1.73048 35.6191 2.64555 35.999 3.60001 36H10.8C11.7545 35.999 12.6695 35.6191 13.3444 34.9437C14.0193 34.2683 14.399 33.3526 14.4 32.3975V26.3934C14.4002 26.075 14.5267 25.7697 14.7517 25.5445C14.9767 25.3194 15.2818 25.1928 15.6 25.1926H20.4C20.7182 25.1928 21.0233 25.3194 21.2483 25.5445C21.4733 25.7697 21.5998 26.075 21.6 26.3934V32.3975C21.601 33.3526 21.9807 34.2683 22.6556 34.9437C23.3305 35.6191 24.2455 35.999 25.2 36H32.4C33.3544 35.999 34.2695 35.6191 34.9444 34.9437C35.6193 34.2683 35.9989 33.3526 36 32.3975V14.9C36.0012 14.3541 35.8779 13.8152 35.6395 13.3242C35.4011 12.8332 35.0538 12.4032 34.6242 12.0668Z"
        fill="white" />
</svg>