<svg width="346" height="43" viewBox="0 0 346 43" fill="none" xmlns="http://www.w3.org/2000/svg">
<path d="M0 37.1235H31.4996V31.0404C31.277 31.0404 31.0495 31.0404 30.8221 31.0404C23.1226 31.0404 15.4231 31.0404 7.72367 31.0404C6.29605 31.0404 4.91682 30.7839 3.63438 30.1257C1.93576 29.2546 0.919484 27.8851 0.851733 25.9639C0.788821 24.212 0.788821 22.4505 0.87109 20.6986C0.982396 18.3563 2.27451 16.8561 4.46192 16.077C5.77339 15.6076 7.1381 15.4672 8.51249 15.4672C15.7667 15.4575 23.021 15.4575 30.2801 15.4672C32.1868 15.4672 34.0112 15.8205 35.6228 16.9094C36.6245 17.582 37.3891 18.4628 37.8779 19.571C37.9505 19.7404 38.0037 19.9243 38.086 20.1711H8.2802V25.8526C8.54152 25.8526 8.78349 25.8526 9.02546 25.8526C16.3571 25.8526 23.6888 25.838 31.0253 25.8622C32.8595 25.8671 34.65 26.1961 36.2567 27.1495C37.9795 28.1706 38.8313 29.7095 38.8458 31.7034C38.8555 33.1697 38.8458 34.636 38.8458 36.1072C38.8458 39.6642 37.0407 41.6725 33.4789 42.05C32.7482 42.1274 32.0126 42.1661 31.2818 42.1661C23.3501 42.1758 15.4183 42.1807 7.48654 42.1661C5.64757 42.1661 3.86183 41.8564 2.30355 40.7772C1.05499 39.911 0.353275 38.6915 0 37.1332L0 37.1235Z" fill="white"/>
<path d="M58.1694 31.9499V42.132H50.1167V15.4573H50.7507C60.1149 15.4573 69.4791 15.4524 78.8433 15.4621C80.8904 15.4621 82.8987 15.7331 84.7474 16.6816C87.0558 17.8624 88.2656 19.7304 88.2511 22.3534C88.2463 23.2971 88.2511 24.2456 88.2511 25.1893C88.2511 28.6349 86.6105 30.7546 83.223 31.4902C81.9309 31.7708 80.5855 31.9209 79.2595 31.9306C72.4892 31.9741 65.7141 31.9499 58.9437 31.9499C58.7163 31.9499 58.4888 31.9499 58.1646 31.9499H58.1694ZM58.2227 20.1515V26.9847C58.3969 26.9944 58.5276 27.004 58.6631 27.004C65.1575 27.004 71.6568 27.0041 78.1513 26.9992C78.611 26.9992 79.0804 26.9411 79.5305 26.8444C80.45 26.6459 81.084 26.0991 81.1469 25.1312C81.2146 24.1343 81.2291 23.1277 81.1662 22.1308C81.1033 21.2065 80.5178 20.6064 79.6176 20.4031C78.9837 20.2579 78.3207 20.1612 77.6722 20.1612C71.41 20.1418 65.143 20.1515 58.8808 20.1515H58.2275H58.2227Z" fill="white"/>
<path d="M148.032 37.1278H178.133C178.201 38.628 176.802 40.6461 175.215 41.372C173.865 41.9866 172.427 42.1511 170.971 42.156C162.981 42.1705 154.991 42.1705 146.996 42.156C145.375 42.156 143.802 41.8366 142.375 41.009C140.642 40.0024 139.752 38.478 139.747 36.4842C139.732 31.4657 139.742 26.4425 139.742 21.424C139.742 18.8301 140.991 17.0298 143.43 16.1152C144.693 15.6409 146.014 15.4619 147.355 15.4619C154.977 15.457 162.599 15.4522 170.225 15.4619C171.837 15.4619 173.429 15.6651 174.925 16.3233C176.425 16.9863 177.543 18.0171 178.085 19.5996C178.138 19.7593 178.177 19.9286 178.235 20.1416H148.032V37.1327V37.1278Z" fill="white"/>
<path d="M345.692 0C342.411 0.430706 338.883 0.842054 335.37 1.35987C327.448 2.52616 319.642 4.2635 311.947 6.4751C296.674 10.8693 282.199 17.0589 268.847 25.7359C262.251 30.0236 256.081 34.8484 250.409 40.3073C250.23 40.4815 250.008 40.6267 249.863 40.8251C249.045 41.9672 247.956 42.2382 246.567 42.1946C243.165 42.0882 239.758 42.1608 236.351 42.1608H235.577C235.79 41.9382 235.92 41.7881 236.056 41.6526C242.231 35.4969 249.137 30.2752 256.541 25.6875C266.481 19.5269 277.055 14.7021 288.099 10.8886C298.416 7.32684 308.985 4.73292 319.748 2.91331C326.402 1.78574 333.095 0.948521 339.827 0.430706C341.864 0.275845 343.906 0.130664 345.687 0L345.692 0Z" fill="white"/>
<path d="M189.36 24.458H213.799V28.978H197.607V37.1227H225.419V42.1266H189.36V24.458Z" fill="white"/>
<path d="M111.858 14.3105C118.739 23.6022 125.577 32.8261 132.464 42.1225C132.232 42.1419 132.072 42.1612 131.912 42.1612C129.047 42.1612 126.187 42.1564 123.322 42.1709C122.945 42.1709 122.732 42.0451 122.519 41.7499C121.328 40.0851 120.104 38.4446 118.918 36.7798C118.662 36.4217 118.391 36.3007 117.96 36.3056C110.145 36.3201 102.329 36.3153 94.5134 36.3153H93.6907C94.6537 35.2845 95.5103 34.3601 96.3765 33.4407C96.904 32.8793 97.3541 32.1147 98.0074 31.8291C98.6607 31.5436 99.527 31.7372 100.296 31.7372C105.015 31.7372 109.738 31.7372 114.456 31.7372H115.202C115.008 31.4613 114.878 31.2629 114.737 31.0694C112.255 27.6721 109.782 24.2652 107.28 20.8824C106.975 20.4711 107.014 20.2291 107.323 19.8565C108.833 18.0466 110.309 16.2124 111.858 14.3105Z" fill="white"/>
<path d="M189.336 20.1275V15.5059H225.796V20.1275H189.336Z" fill="white"/>
<path d="M285.209 42.1609H284.561C280.709 42.1609 276.862 42.1657 273.009 42.1463C272.69 42.1463 272.322 42.0254 272.066 41.8415C268.63 39.3685 265.208 36.8762 261.787 34.3888C261.584 34.2436 261.385 34.0936 261.129 33.9C261.564 33.5613 261.946 33.2515 262.343 32.9563C263.965 31.7707 265.591 30.5899 267.212 29.3994C267.449 29.2252 267.628 29.1429 267.918 29.3558C273.638 33.5806 279.368 37.7909 285.098 42.006C285.113 42.0157 285.122 42.035 285.214 42.156L285.209 42.1609Z" fill="white"/>
<path d="M236.462 15.4861C236.753 15.4716 236.941 15.4571 237.125 15.4571C240.973 15.4571 244.825 15.4522 248.672 15.4668C248.943 15.4668 249.267 15.5248 249.48 15.6748C252.398 17.7364 255.302 19.8174 258.211 21.8935C258.259 21.9273 258.298 21.9661 258.394 22.0386C258.177 22.1741 257.993 22.2903 257.809 22.4016C255.815 23.655 253.816 24.8987 251.827 26.1666C251.532 26.3554 251.339 26.4086 251.024 26.1763C246.306 22.7113 241.578 19.2657 236.854 15.8103C236.748 15.7329 236.651 15.6458 236.462 15.4861Z" fill="white"/>
</svg>
