<svg width="19" height="22" viewBox="0 0 19 22" fill="none" xmlns="http://www.w3.org/2000/svg">
<path d="M10.5863 4.49197C10.3431 4.49197 10.1458 4.29464 10.1458 4.05149V2.57149C10.1458 2.08608 9.75025 1.69053 9.26484 1.69053C8.77944 1.69053 8.38389 2.08608 8.38389 2.57149V4.05149C8.38389 4.29464 8.18655 4.49197 7.94341 4.49197C7.70026 4.49197 7.50293 4.29552 7.50293 4.05149V2.57149C7.50293 1.59979 8.29315 0.80957 9.26484 0.80957C10.2365 0.80957 11.0268 1.59979 11.0268 2.57149V4.05149C11.0268 4.29552 10.8294 4.49197 10.5863 4.49197Z" fill="white"/>
<path d="M9.26499 21.9525C7.56474 21.9525 6.18164 20.5694 6.18164 18.8692C6.18164 18.626 6.37898 18.4287 6.62212 18.4287C6.86526 18.4287 7.0626 18.626 7.0626 18.8692C7.0626 20.0831 8.05103 21.0716 9.26499 21.0716C10.479 21.0716 11.4674 20.0831 11.4674 18.8692C11.4674 18.626 11.6647 18.4287 11.9079 18.4287C12.151 18.4287 12.3483 18.626 12.3483 18.8692C12.3483 20.5694 10.9652 21.9525 9.26499 21.9525Z" fill="white"/>
<path d="M16.753 19.3104H1.77676C1.04821 19.3104 0.455322 18.7175 0.455322 17.9889C0.455322 17.6022 0.623585 17.2366 0.917825 16.9846C2.30621 15.8112 3.09819 14.1039 3.09819 12.2962V9.61983C3.09819 6.21933 5.8644 3.45312 9.2649 3.45312C12.6654 3.45312 15.4316 6.21933 15.4316 9.61983V12.2962C15.4316 14.1048 16.2236 15.8112 17.6049 16.9785C17.9062 17.2366 18.0745 17.6022 18.0745 17.9889C18.0745 18.7175 17.4825 19.3104 16.753 19.3104ZM9.2649 4.33408C6.34981 4.33408 3.97915 6.70474 3.97915 9.61983V12.2962C3.97915 14.3647 3.07353 16.316 1.49397 17.6515C1.39266 17.7378 1.33628 17.8603 1.33628 17.9889C1.33628 18.2321 1.53361 18.4294 1.77676 18.4294H16.753C16.9962 18.4294 17.1935 18.2321 17.1935 17.9889C17.1935 17.8603 17.1371 17.7378 17.0393 17.6542C15.4571 16.316 14.5506 14.3638 14.5506 12.2962V9.61983C14.5506 6.70474 12.18 4.33408 9.2649 4.33408Z" fill="white"/>
</svg>
